<svg id="Capa_1" enable-background="new 0 0 512 512" height="512" viewBox="0 0 512 512" width="512" xmlns="http://www.w3.org/2000/svg"><g><path d="m385.772 45.82c-7.106-19.3-24.313-31.955-43.447-31.955h-172.65c-19.134 0-36.34 12.655-43.447 31.955l-72.684 197.402h404.912zm-230.542 10.679c2.623-7.124 8.293-11.728 14.445-11.728h172.651c6.151 0 11.821 4.604 14.445 11.728l57.372 155.817h-316.285z" fill="#d8ecfe"/><path d="m307.764 58.636h-96.643c-8.533 0-15.451-6.918-15.451-15.451v-27.734c.001-8.533 6.918-15.451 15.451-15.451h96.643c8.533 0 15.451 6.918 15.451 15.451v27.735c0 8.533-6.918 15.45-15.451 15.45z" fill="#aee69c"/><path d="m307.764 0h-30.905c8.533 0 15.451 6.918 15.451 15.451v27.735c0 8.533-6.918 15.451-15.451 15.451h30.905c8.533 0 15.451-6.918 15.451-15.451v-27.735c0-8.533-6.918-15.451-15.451-15.451z" fill="#89daa4"/><path d="m393.29 512h-21.395l-16.45-4.463-14.455 4.463h-77.264l-17.26-4.269-13.645 4.269h-61.811l-15.9-4.685-15.005 4.685h-21.395c-12.398 0-23.336-8.811-26.937-21.699l-10.258-36.717 2.776-15.453-11.411-15.452-12.952-46.359 3.751-13.8-12.386-17.105-12.952-46.358 4.655-15.453-13.29-15.453-5.295-18.953c-5.488-19.641 8.042-39.463 26.937-39.463h88.757l14.62 6.154 16.285-6.154h61.811l16.285 6.638 14.621-6.638h77.264l15.242 5.509 15.663-5.509h88.757c18.894 0 32.424 19.821 26.937 39.463l-5.295 18.953-10.626 16.773 1.991 14.133-12.952 46.358-12.635 16.759 4.001 14.147-12.952 46.358-10.198 15.453 1.563 15.453-10.258 36.717c-3.603 12.887-14.541 21.698-26.939 21.698z" fill="#aee69c"/><path d="m460.652 209.735h-30.905c18.895 0 32.424 19.821 26.936 39.463l-67.362 241.103c-3.6 12.888-14.538 21.699-26.936 21.699h30.905c12.398 0 23.336-8.811 26.936-21.699l67.362-241.103c5.488-19.641-8.041-39.463-26.936-39.463z" fill="#89daa4"/><path d="m29.707 268.151 8.635 30.905h94.552c3.983 0 7.211 3.229 7.211 7.211v31.936c0 3.983-3.229 7.211-7.211 7.211h-81.6l8.635 30.905h72.965c3.983 0 7.211 3.229 7.211 7.211v31.936c0 3.983-3.229 7.211-7.211 7.211h-60.014l8.635 30.905h51.379c3.983 0 7.211 3.229 7.211 7.211v51.207h30.905v-51.205c0-3.983 3.229-7.211 7.211-7.211h47.388c3.983 0 7.211 3.229 7.211 7.211v51.205h30.905v-51.205c0-3.983 3.229-7.211 7.211-7.211h62.841c3.983 0 7.211 3.229 7.211 7.211v51.205h30.905v-51.205c0-3.983 3.229-7.211 7.211-7.211h51.379l-1.563-15.453 10.198-15.453h-60.013c-3.983 0-7.211-3.229-7.211-7.211v-31.936c0-3.983 3.229-7.211 7.211-7.211h72.965l-2.26-15.966 10.895-14.939h-81.6c-3.983 0-7.211-3.229-7.211-7.211v-31.936c0-3.983 3.229-7.211 7.211-7.211h94.552l-1.991-14.133 10.626-16.773h-103.185c-3.983 0-7.211-3.229-7.211-7.211v-51.205h-30.906v51.205c0 3.983-3.229 7.211-7.211 7.211h-62.841c-3.983 0-7.211-3.229-7.211-7.211v-51.205h-30.905v51.205c0 3.983-3.229 7.211-7.211 7.211h-47.388c-3.983 0-7.211-3.229-7.211-7.211v-51.205h-30.905v51.205c0 3.983-3.229 7.211-7.211 7.211zm241.231 30.906h62.841c3.983 0 7.211 3.229 7.211 7.211v31.936c0 3.983-3.229 7.211-7.211 7.211h-62.841c-3.983 0-7.211-3.229-7.211-7.211v-31.936c-.001-3.983 3.228-7.211 7.211-7.211zm0 77.263h62.841c3.983 0 7.211 3.229 7.211 7.211v31.936c0 3.983-3.229 7.211-7.211 7.211h-62.841c-3.983 0-7.211-3.229-7.211-7.211v-31.936c-.001-3.982 3.228-7.211 7.211-7.211zm-92.717-77.263h47.388c3.983 0 7.211 3.229 7.211 7.211v31.936c0 3.983-3.229 7.211-7.211 7.211h-47.388c-3.983 0-7.211-3.229-7.211-7.211v-31.936c0-3.983 3.229-7.211 7.211-7.211zm0 77.263h47.388c3.983 0 7.211 3.229 7.211 7.211v31.936c0 3.983-3.229 7.211-7.211 7.211h-47.388c-3.983 0-7.211-3.229-7.211-7.211v-31.936c0-3.982 3.229-7.211 7.211-7.211z" fill="#dbf1d0"/><g fill="#c1e9af"><path d="m439.12 422.679h-30.906l-8.634 30.905h30.905z"/><path d="m460.707 345.415h-30.906l-8.634 30.905h30.905z"/><path d="m451.388 268.151-8.635 30.906h30.906l8.634-30.906z"/></g></g></svg>