<svg id="Layer_1" height="512" viewBox="0 0 512 512" width="512" xmlns="http://www.w3.org/2000/svg"><g><g><g><path d="m448 496h-32c-17.673 0-32-14.327-32-32 0-17.673 14.327-32 32-32h32c17.673 0 32 14.327 32 32 0 17.673-14.327 32-32 32z" fill="#463c4b"/></g><g><circle cx="416" cy="464" fill="#555a6e" r="32"/></g><g><circle cx="416" cy="464" fill="#d7e6f0" r="16"/></g><g><path d="m288 496h-32c-17.673 0-32-14.327-32-32 0-17.673 14.327-32 32-32h32c17.673 0 32 14.327 32 32 0 17.673-14.327 32-32 32z" fill="#463c4b"/></g><g><path d="m96 496h-32c-17.673 0-32-14.327-32-32 0-17.673 14.327-32 32-32h32c17.673 0 32 14.327 32 32 0 17.673-14.327 32-32 32z" fill="#463c4b"/></g><g><path d="m480 464h-448c-8.837 0-16-7.163-16-16v-176c0-17.673 14.327-32 32-32h416c17.673 0 32 14.327 32 32v176c0 8.837-7.163 16-16 16z" fill="#23aae6"/></g><g><path d="m320 464h-288c-8.837 0-16-7.163-16-16v-176c0-17.673 14.327-32 32-32h256c17.673 0 32 14.327 32 32v176c0 8.837-7.163 16-16 16z" fill="#5ad7ff"/></g><g><path d="m336 272h160v128h-160z" fill="#463c4b"/></g><g><path d="m16 272v80h248c13.255 0 24 10.745 24 24 0 13.255 10.745 24 24 24h24v-128z" fill="#555a6e"/></g><g><circle cx="64" cy="464" fill="#555a6e" r="32"/></g><g><circle cx="64" cy="464" fill="#d7e6f0" r="16"/></g><g><circle cx="256" cy="464" fill="#555a6e" r="32"/></g><g><circle cx="256" cy="464" fill="#d7e6f0" r="16"/></g><g><path d="m84 376h-40c-2.209 0-4 1.791-4 4 0 2.209 1.791 4 4 4h40c2.209 0 4-1.791 4-4 0-2.209-1.791-4-4-4z" fill="#2387c3"/></g><g><path d="m84 392h-40c-2.209 0-4 1.791-4 4 0 2.209 1.791 4 4 4h40c2.209 0 4-1.791 4-4 0-2.209-1.791-4-4-4z" fill="#2387c3"/></g><g><path d="m84 408h-40c-2.209 0-4 1.791-4 4 0 2.209 1.791 4 4 4h40c2.209 0 4-1.791 4-4 0-2.209-1.791-4-4-4z" fill="#2387c3"/></g><g><path d="m372 440h-36v-24h24c8.837 0 16 7.163 16 16v4c0 2.209-1.791 4-4 4z" fill="#faa019"/></g><g><path d="m460 440h36v-24h-24c-8.837 0-16 7.163-16 16v4c0 2.209 1.791 4 4 4z" fill="#faa019"/></g></g><g><g><path d="m352 112c0-53.019-42.981-96-96-96s-96 42.981-96 96c0 17.461 4.663 33.832 12.81 47.938h-.002l69.327 120.051h.017c2.766 4.783 7.925 8.01 13.848 8.01s11.082-3.227 13.848-8.01h.017l69.327-120.051h-.002c8.147-14.106 12.81-30.477 12.81-47.938z" fill="#e1322d"/></g><g><path d="m176 128c-8.837 0-16-7.163-16-16 0-52.935 43.065-96 96-96 8.837 0 16 7.163 16 16s-7.163 16-16 16c-35.29 0-64 28.71-64 64 0 8.837-7.163 16-16 16z" fill="#f5826e"/></g><g><circle cx="256" cy="112" fill="#d7e6f0" r="64"/></g><g><circle cx="256" cy="112" fill="#d7e6f0" r="64"/></g><g><path d="m248 144c-4.095 0-8.189-1.563-11.313-4.687l-16-16c-6.249-6.248-6.249-16.379 0-22.627 6.248-6.248 16.379-6.248 22.627 0l4.687 4.686 28.687-28.686c6.248-6.248 16.379-6.248 22.627 0 6.249 6.248 6.249 16.379 0 22.627l-40 40c-3.126 3.125-7.22 4.687-11.315 4.687z" fill="#f04b37"/></g></g></g></svg>