<svg id="Capa_1" enable-background="new 0 0 512 512" height="512" viewBox="0 0 512 512" width="512" xmlns="http://www.w3.org/2000/svg"><g><path d="m168.622 338.447c-2.714-2.714-4.394-6.464-4.393-10.607v-56.569c0-8.285 6.715-15 15-15 8.284-.001 15 6.715 15 15v56.569c0 8.285-6.715 15-15 15-4.143.001-7.892-1.678-10.607-4.393z" fill="#08475e"/><path d="m15 512c-8.284 0-15-6.716-15-15v-93.215c0-20.034 7.802-38.868 21.968-53.033l26.446-26.446c5.857-5.858 15.355-5.858 21.213 0s5.858 15.355 0 21.213l-26.446 26.447c-8.5 8.5-13.181 19.8-13.181 31.82v93.214c0 8.284-6.716 15-15 15z" fill="#0a789b"/><path d="m.75 393.184c-.49 3.483-.75 7.021-.75 10.601v93.215c0 8.284 6.716 15 15 15s15-6.716 15-15v-93.215c0-12.02 4.681-23.32 13.181-31.82l26.446-26.447c5.858-5.858 5.858-15.355 0-21.213z" fill="#08475e"/><path d="m292.793 168.312-53.033-53.033 66.22-66.22c31.414-31.413 74.021-49.061 118.448-49.059l25.502.001c8.267-.001 14.997 6.728 14.999 14.999v44.995c0 8.284-6.715 15-14.999 15l-25.509.002c-24.706 0-47.933 9.622-65.403 27.092z" fill="#fffbf4"/><path d="m449.929.001-25.501-.001c-11.509 0-22.894 1.193-33.996 3.495l-131.227 131.229 33.589 33.589 66.224-66.224c17.47-17.47 40.697-27.092 65.403-27.092l25.509-.002c8.284-.001 14.999-6.716 14.999-15v-44.995c-.002-8.271-6.732-15-15-14.999z" fill="#ffe7cb"/><path d="m328.375 261.735-14.142-84.853c-.514-3.084-1.979-5.93-4.189-8.141l-70.711-70.711c-5.858-5.858-15.355-5.858-21.213 0l-24.749 24.749-17.678-17.678c-5.858-5.858-15.355-5.858-21.213 0l-63.64 63.64c-4.867 4.867-5.797 12.422-2.256 18.324l15.188 25.312-83.642 83.644c-5.858 5.858-5.858 15.355 0 21.213l77.782 77.782c29.243 29.243 76.824 29.242 106.066 0l120.208-120.208c3.425-3.426 4.985-8.295 4.189-13.073zm-209.25 112.068-10.607-10.607 73.672-73.672 56.569 28.284-55.995 55.995c-17.545 17.545-46.094 17.545-63.639 0z" fill="#ff7d47"/><path d="m314.233 176.882c-.514-3.084-1.979-5.93-4.189-8.141l-42.428-42.428-219.202 219.206 49.497 49.497c29.243 29.243 76.824 29.242 106.066 0l120.208-120.208c3.425-3.425 4.985-8.294 4.189-13.072zm-131.469 196.921c-17.545 17.545-46.094 17.546-63.64 0l-10.607-10.607 73.672-73.672 56.569 28.284z" fill="#ff405c"/><path d="m457 301c-30.327 0-55-24.673-55-55 0-7.66 2.283-21.779 22.025-55.811 10.18-17.548 20.211-32.103 20.633-32.714 2.801-4.054 7.414-6.475 12.342-6.475s9.541 2.42 12.342 6.475c.422.611 10.453 15.166 20.633 32.714 19.742 34.032 22.025 48.151 22.025 55.811 0 30.327-24.673 55-55 55z" fill="#0a789b"/><path d="m489.975 190.189c-10.18-17.548-20.211-32.103-20.633-32.714-2.801-4.054-7.414-6.475-12.342-6.475v150c30.327 0 55-24.673 55-55 0-7.66-2.283-21.779-22.025-55.811z" fill="#08475e"/></g></svg>