<svg id="Capa_1" enable-background="new 0 0 491.207 491.207" height="512" viewBox="0 0 491.207 491.207" width="512" xmlns="http://www.w3.org/2000/svg"><g><path d="m369.539 273.409v6.91l2.079 30.3-25.317 24.737s-120.217-136.308-118.358-136.618 49.574-14.253 49.574-14.253z" fill="#ffdfcf"/><g><path d="m356.449 311.589-92.257-92.257-63.181-65.08c-4.325-4.325-9.515-7.686-15.23-9.864l-21.487-8.186-14.149-14.149-22.142-28.817-98.673 98.93 30.438 32.236 30.274 30.274v19.56c0 7.081 2.813 13.873 7.82 18.88l35.245 33.222 91.021 69.932 23.82 23.82c7.49 7.49 19.63 7.49 27.12 0 3.74-3.75 5.62-8.65 5.62-13.57 0-4.9-1.88-9.82-5.62-13.56 3.74 3.74 8.66 5.62 13.56 5.62 4.92 0 9.82-1.88 13.57-5.62 7.49-7.49 7.49-19.63 0-27.12 3.75 3.74 8.65 5.62 13.56 5.62s9.81-1.88 13.56-5.62c7.49-7.49 7.49-19.64 0-27.13 7.49 7.49 19.64 7.49 27.13 0 3.74-3.75 5.62-8.65 5.62-13.56s-1.879-9.811-5.619-13.561z" fill="#ffeee6"/><g id="XMLID_442_"><g fill="#ffdfcf"><path d="m224.909 368.81c7.37 7.37 7.37 19.31 0 26.68l-20.15 20.15c-7.37 7.36-19.31 7.36-26.68 0l-.45-.45c-7.36-7.37-7.36-19.31 0-26.68l17.89-17.89 2.27-2.26c7.36-7.37 19.3-7.37 26.67 0z"/><path d="m195.519 343.95c7.37 7.36 7.37 19.31 0 26.67l-17.89 17.89c-3.68 3.69-8.51 5.53-13.34 5.53-4.82 0-9.65-1.84-13.33-5.53-7.37-7.36-7.37-19.31 0-26.67l17.89-17.89c3.68-3.69 8.51-5.53 13.34-5.53 4.82 0 9.65 1.84 13.33 5.53z"/><path d="m177.249 308.88c7.36 7.36 7.36 19.3 0 26.67l-8.4 8.4-17.89 17.89c-3.69 3.68-8.51 5.52-13.34 5.52s-9.65-1.84-13.34-5.52c-7.36-7.37-7.36-19.31 0-26.68l16.21-16.21 10.08-10.07c3.68-3.68 8.51-5.53 13.34-5.53s9.66 1.85 13.34 5.53z"/><path d="m140.489 292.28c7.37 7.37 7.37 19.31 0 26.67l-16.21 16.21c-3.68 3.68-8.51 5.53-13.33 5.53-4.83 0-9.66-1.85-13.34-5.53-7.37-7.36-7.37-19.3 0-26.67l16.21-16.21c3.69-3.68 8.51-5.53 13.34-5.53s9.65 1.85 13.33 5.53z"/></g></g><g id="XMLID_438_"><g fill="#ffcebf"><path d="m190.321 401.202 17.89-17.89 2.27-2.26c5.154-5.161 12.569-6.681 19.073-4.614-.885-2.784-2.437-5.419-4.646-7.628l-.45-.45c-7.37-7.37-19.31-7.37-26.67 0l-2.27 2.26-17.89 17.89c-7.36 7.37-7.36 19.31 0 26.68l.45.45c2.21 2.207 4.84 3.755 7.626 4.638-2.062-6.503-.536-13.916 4.617-19.076z"/><path d="m163.651 374.532 17.89-17.89c3.68-3.69 8.51-5.53 13.34-5.53 1.813 0 3.627.261 5.381.782-.865-2.909-2.446-5.65-4.743-7.945-3.68-3.69-8.51-5.53-13.33-5.53-4.83 0-9.66 1.84-13.34 5.53l-17.89 17.89c-7.37 7.36-7.37 19.31 0 26.67 2.296 2.302 5.04 3.883 7.949 4.748-1.91-6.421-.329-13.66 4.743-18.725z"/><path d="m136.971 347.852 16.21-16.21 10.08-10.07c3.68-3.68 8.51-5.53 13.34-5.53 1.816 0 3.631.262 5.386.784-.864-2.909-2.442-5.651-4.738-7.946-3.68-3.68-8.51-5.53-13.34-5.53s-9.66 1.85-13.34 5.53l-10.08 10.07-16.21 16.21c-7.36 7.37-7.36 19.31 0 26.68 2.302 2.296 5.044 3.875 7.954 4.738-1.905-6.421-.326-13.655 4.738-18.726z"/><path d="m110.301 321.182 16.21-16.21c3.69-3.68 8.51-5.53 13.34-5.53 1.815 0 3.628.262 5.379.783-.865-2.908-2.445-5.648-4.742-7.945-3.68-3.68-8.5-5.53-13.33-5.53s-9.65 1.85-13.34 5.53l-16.21 16.21c-7.37 7.37-7.37 19.31 0 26.67 2.295 2.295 5.037 3.877 7.947 4.744-1.906-6.418-.324-13.651 4.746-18.722z"/></g></g><g id="XMLID_440_"><g><path d="m373.259 129.24 88.84 89.77-12.42 13.55-78.06 78.06-110.33-102.5h-36.59l-23.66 19.45c-8.94 7.34-21.99 6.71-30.16-1.47-4.39-4.39-6.59-10.14-6.59-15.89s2.2-11.5 6.59-15.89l28.52-28.52c2.47-2.47 5.81-3.86 9.3-3.86h75.31c2.53 0 5.02.65 7.24 1.89l28.1 15.67c1.31.73 2.93.51 4-.53l27.98-27.32z" fill="#ffdfcf"/></g></g><g><path d="m187.155 218.235c0-5.75 2.2-11.5 6.59-15.89l19.889-19.889c7.998-7.998 18.845-12.491 30.156-12.491h58.46l-11.001-6.135c-2.22-1.24-4.71-1.89-7.24-1.89h-75.31c-3.483 0-6.824 1.384-9.287 3.847l-28.533 28.533c-4.39 4.39-6.59 10.14-6.59 15.89s2.2 11.5 6.59 15.89c5.673 5.68 13.715 7.716 21.085 5.975-3.182-4.056-4.809-8.947-4.809-13.84z" fill="#ffcebf"/></g><path d="m488.57 213.027-23.194 23.194c-3.272 3.272-8.558 3.332-11.904.136l-99.362-94.913c-3.456-3.301-3.519-8.8-.139-12.18l50.685-50.685c4.17-4.17 11.157-3.27 14.135 1.821l71.184 121.719c2.066 3.532 1.489 8.014-1.405 10.908z" fill="#fd8087"/><path d="m1.77 172.353c-2.342 2.29-2.363 6.052-.047 8.369l34.387 34.387c5.207 5.207 13.649 5.207 18.856 0l95.825-95.825c5.207-5.207 5.207-13.649 0-18.856l-33.205-33.204c-2.28-2.28-5.971-2.301-8.276-.046z" fill="#99e6fc"/></g></g></svg>