<?xml version="1.0" encoding="iso-8859-1"?>
<!-- Generator: Adobe Illustrator 19.0.0, SVG Export Plug-In . SVG Version: 6.00 Build 0)  -->
<svg version="1.1" id="Capa_1" xmlns="http://www.w3.org/2000/svg" xmlns:xlink="http://www.w3.org/1999/xlink" x="0px" y="0px"
	 viewBox="0 0 496 496" style="enable-background:new 0 0 496 496;" xml:space="preserve">
<path style="fill:#CCD1D9;" d="M230.512,352h248v144h-264V332.32L230.512,352z M438.512,448v-56h-72v56H438.512z M326.512,448v-56
	h-72v56H326.512z"/>
<g>
	<rect x="366.512" y="392" style="fill:#5D9CEC;" width="72" height="56"/>
	<rect x="254.512" y="392" style="fill:#5D9CEC;" width="72" height="56"/>
</g>
<rect x="102.512" y="408" style="fill:#ED5565;" width="48" height="88"/>
<path style="fill:#5D9CEC;" d="M126.512,312c13.2,0,24,10.72,24,24c0,13.192-10.8,24-24,24c-13.28,0-24-10.808-24-24
	C102.512,322.72,113.232,312,126.512,312z"/>
<path style="fill:#E6E9ED;" d="M214.512,332.32V496h-64v-88h-48v88h-64V332.32v-0.08l88-108.24L214.512,332.32z M150.512,336
	c0-13.28-10.8-24-24-24c-13.28,0-24,10.72-24,24c0,13.192,10.72,24,24,24C139.72,360,150.512,349.192,150.512,336z"/>
<polygon style="fill:#DA4453;" points="243.488,328 486.512,328 486.512,352 478.512,352 230.512,352 214.512,332.32 126.512,224 
	38.512,332.24 38.512,332.32 22.512,352 9.488,328 126.512,184 "/>
<polygon style="fill:#656D78;" points="195,184 315,184 334.512,208 214.512,208 "/>
<polygon style="fill:#ED5565;" points="369.488,184 486.512,328 243.488,328 126.512,184 195,184 214.512,208 334.512,208 315,184 
	"/>
<path style="fill:#EDAB37;" d="M262.512,112c30.872,0,56-25.128,56-56v32c0,30.872-25.128,56-56,56c-30.952,0-56-25.128-56-56V56
	C206.512,86.872,231.56,112,262.512,112z"/>
<path style="fill:#FFCE54;" d="M318.512,56c0,30.872-25.128,56-56,56c-30.952,0-56-25.128-56-56c0-30.96,25.048-56,56-56
	C293.392,0,318.512,25.04,318.512,56z"/>
<path style="fill:#F6BB42;" d="M262.512,0c-5.56,0-10.936,0.832-16.016,2.352C269.608,9.224,286.512,30.608,286.512,56
	c0,25.32-16.904,46.744-40.016,53.648c5.08,1.512,10.456,2.352,16.016,2.352c30.872,0,56-25.128,56-56
	C318.512,25.04,293.392,0,262.512,0z"/>
<rect x="454.512" y="328" style="fill:#D3374E;" width="32" height="24"/>
<path style="fill:#EDAB37;" d="M262.504,80c-4.424,0-8-3.576-8-8V40c0-4.424,3.576-8,8-8s8,3.576,8,8v32
	C270.504,76.424,266.92,80,262.504,80z"/>
<g>
</g>
<g>
</g>
<g>
</g>
<g>
</g>
<g>
</g>
<g>
</g>
<g>
</g>
<g>
</g>
<g>
</g>
<g>
</g>
<g>
</g>
<g>
</g>
<g>
</g>
<g>
</g>
<g>
</g>
</svg>
