<svg height="512" viewBox="0 0 512 512" width="512" xmlns="http://www.w3.org/2000/svg"><g id="flat"><path d="m378 368h-310a44 44 0 0 1 -44-44v-220h128v40h226a14 14 0 0 1 14 14v196a14 14 0 0 1 -14 14z" fill="#768753"/><path d="m24 132a44 44 0 0 0 44 44h252a40 40 0 0 0 40 40v80a40 40 0 0 0 -40 40h-252a44 44 0 0 1 -44-44z" fill="#91a666"/><circle cx="152" cy="256" fill="#768753" r="80"/><path d="m64 64h88a0 0 0 0 1 0 0v80a0 0 0 0 1 0 0h-88a40 40 0 0 1 -40-40 40 40 0 0 1 40-40z" fill="#5d6a41"/><path d="m120 128v16h-56a40 40 0 0 1 -40-40 40.571 40.571 0 0 1 .8-8h63.2a31.991 31.991 0 0 0 32 32z" fill="#667447"/><circle cx="280" cy="256" fill="#768753" r="16"/><path d="m311.247 288.241 38.878 5.24 18.229-34.737 28.373 27.091 35.166-17.388 7.031 38.595 38.67 6.603-16.998 35.356 27.404 28.071-34.533 18.613 5.67 38.818-38.878-5.24-18.229 34.737-28.374-27.091-35.165 17.388-7.031-38.595-38.67-6.603 16.997-35.356-27.403-28.071 34.533-18.613z" fill="#f7a014"/><g fill="#a86e09"><path d="m353.485 401.432a8 8 0 0 1 -5.688-13.625l61.88-62.57a8 8 0 1 1 11.376 11.25l-61.88 62.57a7.975 7.975 0 0 1 -5.688 2.375z"/><circle cx="355.305" cy="338.974" r="13"/><circle cx="407.92" cy="391.009" r="13"/></g><path d="m152 312a56 56 0 0 1 0-112 8 8 0 0 1 0 16 39.953 39.953 0 1 0 37.726 26.666 8 8 0 1 1 15.085-5.332 56.033 56.033 0 0 1 -52.811 74.666z" fill="#667447"/></g></svg>