<svg id="Capa_1" enable-background="new 0 0 512 512" height="512" viewBox="0 0 512 512" width="512" xmlns="http://www.w3.org/2000/svg"><g><g><path clip-rule="evenodd" d="m255.964 507.5c118.205 0 214.616-96.525 214.616-214.871 0-118.316-96.411-214.842-214.616-214.842-118.176 0-214.586 96.525-214.586 214.842 0 118.346 96.41 214.871 214.586 214.871z" fill="#99e6fc" fill-rule="evenodd"/></g><g><path clip-rule="evenodd" d="m245.701 224.745c15.955 52.382 95.585 28.76 87.71-23.947-14.835-59.882 48.721-42.726 6.488-105.944-25.776-10.984-54.148-17.067-83.935-17.067-9.615 0-19.082.65-28.372 1.86l-133.157 71.575c-30.377 34.724-49.724 79.34-52.673 128.385 64.205 31.919 87.179-15.207 100.687-54.862 18.727-54.98 89.951-43.582 103.252 0z" fill="#68ca44" fill-rule="evenodd"/></g><g><path clip-rule="evenodd" d="m250.361 507.411c5.604-32.775-6.665-75.708-48.987-78.041-34.654-1.919-34.152-2.096-51.789-41.161-16.693-37.027-74.026-32.894-87.415-3.189 33.739 70.837 105.081 120.265 188.191 122.391z" fill="#68ca44" fill-rule="evenodd"/></g><g><path clip-rule="evenodd" d="m236.971 107.964c37.278 11.752 70.516 32.628 97.089 60 9.585-23.474 37.544-25.63 5.84-73.11-25.776-10.984-54.148-17.067-83.935-17.067-9.615 0-19.082.65-28.372 1.86 5.869 7.53 9.379 17.008 9.379 27.313-.001.325-.001.65-.001 1.004z" fill="#4fc122" fill-rule="evenodd"/></g><g><path clip-rule="evenodd" d="m334.06 167.964c40.758 41.988 65.856 99.271 65.856 162.43 0 1.417 0 2.835-.03 4.281l18.964 3.189 7.285-14.203c7.786-14.646 17.283-23.445 26.779-27.697 5.368-2.392 11.649-4.665 17.636-5.787-.972-87.784-54.56-162.931-130.65-195.323 31.704 47.48 3.745 49.636-5.84 73.11z" fill="#2ed1e2" fill-rule="evenodd"/></g><g><path d="m475.971 338.747c-3.481 0-6.641-2.369-7.501-5.903-1.112-4.57-7.643-8.708-11.065-7.95-4.164.917-8.289-1.72-9.205-5.891-.917-4.17 1.719-8.293 5.887-9.21 11.821-2.603 26.382 7.005 29.397 19.392 1.01 4.148-1.532 8.33-5.679 9.341-.614.149-1.23.221-1.834.221z"/></g><g><path clip-rule="evenodd" d="m394.431 385.463 24.42-47.598-68.629-11.575c-11.974-2.274-21.883 4.134-25.363 9.272l-6.754 10.039c-5.132 7.589-1.917 11.929 6.459 14.852l34.418 12.372z" fill="#9d9696" fill-rule="evenodd"/></g><g><path clip-rule="evenodd" d="m508.655 459.872c3.48-5.138 5.692-16.742-.885-26.988l-36.335-59.439-34.978 40.423 24.951 28.228 24.302 27.342c5.81 6.703 11.06 8.061 16.162.472z" fill="#9d9696" fill-rule="evenodd"/></g><g><path clip-rule="evenodd" d="m357.772 457.008 17.843-34.842-37.337-8.268c-9.32-1.978-17.106 3.218-19.819 7.234l-3.716 5.522c-3.981 5.935-1.475 9.331 5.073 11.604z" fill="#9d9696" fill-rule="evenodd"/></g><g><path clip-rule="evenodd" d="m431.739 497.756c2.713-4.016 4.63-13.199-.708-21.083l-21.411-31.801-25.776 29.764 31.527 28.258c4.542 5.226 8.641 6.289 12.652.384z" fill="#9d9696" fill-rule="evenodd"/></g><g><path clip-rule="evenodd" d="m409.62 444.872 26.838-31.004 34.978-40.423 10.44-12.047c10.676-12.726 15.277-24.833 15.66-35.226.501-12.461-1.121-28.405-9.526-34.016-8.376-5.728-23.712-1.27-35.096 3.839-9.497 4.222-18.993 13.022-26.779 27.667l-7.285 14.203-24.42 47.598-18.816 36.703-17.843 34.842c-8.582 19.754 11.001 33.986 26.071 17.628z" fill="#e0d2ce" fill-rule="evenodd"/></g><g><path clip-rule="evenodd" d="m475.771 289.528c2.743 7.264 3.333 16.831 3.008 24.951-.177 4.695-1.209 9.744-3.274 15.029-2.507 6.437-6.547 13.199-12.387 20.167l-10.44 12.047-6.695 7.766-28.313 32.687-26.809 30.974-25.776 29.793c-2.979 3.218-6.134 5.256-9.202 6.289.767 5.049 3.628 9.006 7.521 11.014 5.663 2.953 13.507 1.89 20.438-5.61l25.776-29.764 26.838-31.004 34.978-40.423 10.44-12.047c10.676-12.726 15.277-24.833 15.66-35.226.501-12.461-1.121-28.405-9.526-34.016-3.242-2.213-7.548-2.892-12.237-2.627z" fill="#b8acac" fill-rule="evenodd"/></g><g><path clip-rule="evenodd" d="m206.83 148.919c17.518-5.876 30.141-22.441 30.141-41.959 0-10.305-3.51-19.783-9.379-27.313-8.11-10.335-20.704-16.978-34.831-16.978-3.215 0-6.341.354-9.349 1.004-3.066-33.189-30.966-59.173-64.912-59.173-21.205 0-40.021 10.098-51.936 25.777-2.005-.384-4.099-.561-6.252-.561-18.875 0-34.211 15.325-34.211 34.222 0 .886.029 1.742.088 2.569-15.424 6.91-26.189 22.412-26.189 40.453 0 19.518 12.623 36.083 30.141 41.959 3.628 1.476 7.58 2.303 11.708 2.303h52.585 100.716c4.13 0 8.082-.827 11.68-2.303z" fill="#e0d2ce" fill-rule="evenodd"/></g><g><path clip-rule="evenodd" d="m206.83 148.919c17.518-5.876 30.141-22.441 30.141-41.959 0-10.305-3.51-19.783-9.379-27.313-8.11-10.335-20.704-16.978-34.831-16.978-3.215 0-6.341.354-9.349 1.004-3.066-33.189-30.966-59.173-64.912-59.173-13.861 0-26.691 4.311-37.249 11.693 33.149 11.929 56.891 43.848 56.891 81.378 0 20.285-6.931 38.917-18.521 53.651h75.53c4.129 0 8.081-.827 11.679-2.303z" fill="#b8acac" fill-rule="evenodd"/></g></g></svg>